<svg width="24" height="24" viewBox="0 0 24 24" fill="none" xmlns="http://www.w3.org/2000/svg">
<path d="M11.09 21.4999C11.0106 21.5143 10.9293 21.5143 10.85 21.4999C10.6768 21.4476 10.5254 21.3402 10.4189 21.194C10.3124 21.0478 10.2566 20.8708 10.26 20.6899V20.5799L11.16 14.2299H6.81995C6.6736 14.23 6.53001 14.19 6.40482 14.1142C6.27963 14.0384 6.17764 13.9297 6.10995 13.7999C6.03348 13.6695 5.99316 13.5211 5.99316 13.3699C5.99316 13.2187 6.03348 13.0703 6.10995 12.9399L8.10995 9.4499L12.21 2.9299C12.3011 2.77607 12.4417 2.65768 12.6088 2.59411C12.7759 2.53053 12.9596 2.52553 13.13 2.5799C13.3031 2.63218 13.4545 2.7396 13.561 2.88582C13.6675 3.03203 13.7233 3.20904 13.72 3.3899V3.4999L12.82 9.84991H17.17C17.3163 9.84978 17.4599 9.8898 17.5851 9.96562C17.7103 10.0414 17.8123 10.1501 17.88 10.2799C17.9564 10.4103 17.9967 10.5587 17.9967 10.7099C17.9967 10.8611 17.9564 11.0095 17.88 11.1399L15.88 14.6299L11.78 21.1499C11.7046 21.2625 11.6016 21.3539 11.4807 21.4152C11.3599 21.4764 11.2253 21.5056 11.09 21.4999ZM7.92995 12.6899H11.93C12.0403 12.6912 12.1492 12.7142 12.2507 12.7577C12.3521 12.8011 12.4439 12.8641 12.521 12.943C12.5981 13.0219 12.6589 13.1153 12.6999 13.2177C12.7409 13.3201 12.7613 13.4296 12.76 13.5399V13.6499L12.17 17.7899L14.67 13.7899L16.11 11.3099H12.11C11.9996 11.3086 11.8907 11.2856 11.7892 11.2422C11.6878 11.1987 11.596 11.1358 11.5189 11.0568C11.4418 10.9779 11.381 10.8845 11.3401 10.7821C11.2991 10.6797 11.2786 10.5702 11.28 10.4599V10.3499L11.87 6.2099L9.36995 10.2099L7.92995 12.6899Z" fill="white"/>
</svg>
