<svg width="575" height="500" viewBox="0 0 575 500" fill="none" xmlns="http://www.w3.org/2000/svg">
<g clip-path="url(#clip0_189_80)">
<circle cx="2.5" cy="2.5" r="2.5" fill="#A9F868"/>
<circle cx="32.5" cy="2.5" r="2.5" fill="#A9F868"/>
<circle cx="62.5" cy="2.5" r="2.5" fill="#A9F868"/>
<circle cx="92.5" cy="2.5" r="2.5" fill="#A9F868"/>
<circle cx="122.5" cy="2.5" r="2.5" fill="#A9F868"/>
<circle cx="152.5" cy="2.5" r="2.5" fill="#A9F868"/>
<circle cx="182.5" cy="2.5" r="2.5" fill="#A9F868"/>
<circle cx="212.5" cy="2.5" r="2.5" fill="#A9F868"/>
<circle cx="242.5" cy="2.5" r="2.5" fill="#A9F868"/>
<circle cx="272.5" cy="2.5" r="2.5" fill="#A9F868"/>
<circle cx="302.5" cy="2.5" r="2.5" fill="#A9F868"/>
<circle cx="332.5" cy="2.5" r="2.5" fill="#A9F868"/>
<circle cx="362.5" cy="2.5" r="2.5" fill="#A9F868"/>
<circle cx="392.5" cy="2.5" r="2.5" fill="#A9F868"/>
<circle cx="422.5" cy="2.5" r="2.5" fill="#A9F868"/>
<circle cx="452.5" cy="2.5" r="2.5" fill="#A9F868"/>
<circle cx="482.5" cy="2.5" r="2.5" fill="#A9F868"/>
<circle cx="512.5" cy="2.5" r="2.5" fill="#A9F868"/>
<circle cx="542.5" cy="2.5" r="2.5" fill="#A9F868"/>
<circle cx="572.5" cy="2.5" r="2.5" fill="#A9F868"/>
<circle cx="2.5" cy="32.5" r="2.5" fill="#A9F868"/>
<circle cx="32.5" cy="32.5" r="2.5" fill="#A9F868"/>
<circle cx="62.5" cy="32.5" r="2.5" fill="#A9F868"/>
<circle cx="92.5" cy="32.5" r="2.5" fill="#A9F868"/>
<circle cx="122.5" cy="32.5" r="2.5" fill="#A9F868"/>
<circle cx="152.5" cy="32.5" r="2.5" fill="#A9F868"/>
<circle cx="182.5" cy="32.5" r="2.5" fill="#A9F868"/>
<circle cx="212.5" cy="32.5" r="2.5" fill="#A9F868"/>
<circle cx="242.5" cy="32.5" r="2.5" fill="#A9F868"/>
<circle cx="272.5" cy="32.5" r="2.5" fill="#A9F868"/>
<circle cx="302.5" cy="32.5" r="2.5" fill="#A9F868"/>
<circle cx="332.5" cy="32.5" r="2.5" fill="#A9F868"/>
<circle cx="362.5" cy="32.5" r="2.5" fill="#A9F868"/>
<circle cx="392.5" cy="32.5" r="2.5" fill="#A9F868"/>
<circle cx="422.5" cy="32.5" r="2.5" fill="#A9F868"/>
<circle cx="452.5" cy="32.5" r="2.5" fill="#A9F868"/>
<circle cx="482.5" cy="32.5" r="2.5" fill="#A9F868"/>
<circle cx="512.5" cy="32.5" r="2.5" fill="#A9F868"/>
<circle cx="542.5" cy="32.5" r="2.5" fill="#A9F868"/>
<circle cx="572.5" cy="32.5" r="2.5" fill="#A9F868"/>
<circle cx="2.5" cy="62.5" r="2.5" fill="#A9F868"/>
<circle cx="32.5" cy="62.5" r="2.5" fill="#A9F868"/>
<circle cx="62.5" cy="62.5" r="2.5" fill="#A9F868"/>
<circle cx="92.5" cy="62.5" r="2.5" fill="#A9F868"/>
<circle cx="122.5" cy="62.5" r="2.5" fill="#A9F868"/>
<circle cx="152.5" cy="62.5" r="2.5" fill="#A9F868"/>
<circle cx="182.5" cy="62.5" r="2.5" fill="#A9F868"/>
<circle cx="212.5" cy="62.5" r="2.5" fill="#A9F868"/>
<circle cx="242.5" cy="62.5" r="2.5" fill="#A9F868"/>
<circle cx="272.5" cy="62.5" r="2.5" fill="#A9F868"/>
<circle cx="302.5" cy="62.5" r="2.5" fill="#A9F868"/>
<circle cx="332.5" cy="62.5" r="2.5" fill="#A9F868"/>
<circle cx="362.5" cy="62.5" r="2.5" fill="#A9F868"/>
<circle cx="392.5" cy="62.5" r="2.5" fill="#A9F868"/>
<circle cx="422.5" cy="62.5" r="2.5" fill="#A9F868"/>
<circle cx="452.5" cy="62.5" r="2.5" fill="#A9F868"/>
<circle cx="482.5" cy="62.5" r="2.5" fill="#A9F868"/>
<circle cx="512.5" cy="62.5" r="2.5" fill="#A9F868"/>
<circle cx="542.5" cy="62.5" r="2.5" fill="#A9F868"/>
<circle cx="572.5" cy="62.5" r="2.5" fill="#A9F868"/>
<circle cx="2.5" cy="92.5" r="2.5" fill="#A9F868"/>
<circle cx="32.5" cy="92.5" r="2.5" fill="#A9F868"/>
<circle cx="62.5" cy="92.5" r="2.5" fill="#A9F868"/>
<circle cx="92.5" cy="92.5" r="2.5" fill="#A9F868"/>
<circle cx="122.5" cy="92.5" r="2.5" fill="#A9F868"/>
<circle cx="152.5" cy="92.5" r="2.5" fill="#A9F868"/>
<circle cx="182.5" cy="92.5" r="2.5" fill="#A9F868"/>
<circle cx="212.5" cy="92.5" r="2.5" fill="#A9F868"/>
<circle cx="242.5" cy="92.5" r="2.5" fill="#A9F868"/>
<circle cx="272.5" cy="92.5" r="2.5" fill="#A9F868"/>
<circle cx="302.5" cy="92.5" r="2.5" fill="#A9F868"/>
<circle cx="332.5" cy="92.5" r="2.5" fill="#A9F868"/>
<circle cx="362.5" cy="92.5" r="2.5" fill="#A9F868"/>
<circle cx="392.5" cy="92.5" r="2.5" fill="#A9F868"/>
<circle cx="422.5" cy="92.5" r="2.5" fill="#A9F868"/>
<circle cx="452.5" cy="92.5" r="2.5" fill="#A9F868"/>
<circle cx="482.5" cy="92.5" r="2.5" fill="#A9F868"/>
<circle cx="512.5" cy="92.5" r="2.5" fill="#A9F868"/>
<circle cx="542.5" cy="92.5" r="2.5" fill="#A9F868"/>
<circle cx="572.5" cy="92.5" r="2.5" fill="#A9F868"/>
<circle cx="2.5" cy="122.5" r="2.5" fill="#A9F868"/>
<circle cx="32.5" cy="122.5" r="2.5" fill="#A9F868"/>
<circle cx="62.5" cy="122.5" r="2.5" fill="#A9F868"/>
<circle cx="92.5" cy="122.5" r="2.5" fill="#A9F868"/>
<circle cx="122.5" cy="122.5" r="2.5" fill="#A9F868"/>
<circle cx="152.5" cy="122.5" r="2.5" fill="#A9F868"/>
<circle cx="182.5" cy="122.5" r="2.5" fill="#A9F868"/>
<circle cx="212.5" cy="122.5" r="2.5" fill="#A9F868"/>
<circle cx="242.5" cy="122.5" r="2.5" fill="#A9F868"/>
<circle cx="272.5" cy="122.5" r="2.5" fill="#A9F868"/>
<circle cx="302.5" cy="122.5" r="2.5" fill="#A9F868"/>
<circle cx="332.5" cy="122.5" r="2.5" fill="#A9F868"/>
<circle cx="362.5" cy="122.5" r="2.5" fill="#A9F868"/>
<circle cx="392.5" cy="122.5" r="2.5" fill="#A9F868"/>
<circle cx="422.5" cy="122.5" r="2.5" fill="#A9F868"/>
<circle cx="452.5" cy="122.5" r="2.5" fill="#A9F868"/>
<circle cx="482.5" cy="122.5" r="2.5" fill="#A9F868"/>
<circle cx="512.5" cy="122.5" r="2.5" fill="#A9F868"/>
<circle cx="542.5" cy="122.5" r="2.5" fill="#A9F868"/>
<circle cx="572.5" cy="122.5" r="2.5" fill="#A9F868"/>
<circle cx="2.5" cy="152.5" r="2.5" fill="#A9F868"/>
<circle cx="32.5" cy="152.5" r="2.5" fill="#A9F868"/>
<circle cx="62.5" cy="152.5" r="2.5" fill="#A9F868"/>
<circle cx="92.5" cy="152.5" r="2.5" fill="#A9F868"/>
<circle cx="122.5" cy="152.5" r="2.5" fill="#A9F868"/>
<circle cx="152.5" cy="152.5" r="2.5" fill="#A9F868"/>
<circle cx="182.5" cy="152.5" r="2.5" fill="#A9F868"/>
<circle cx="212.5" cy="152.5" r="2.5" fill="#A9F868"/>
<circle cx="242.5" cy="152.5" r="2.5" fill="#A9F868"/>
<circle cx="272.5" cy="152.5" r="2.5" fill="#A9F868"/>
<circle cx="302.5" cy="152.5" r="2.5" fill="#A9F868"/>
<circle cx="332.5" cy="152.5" r="2.5" fill="#A9F868"/>
<circle cx="362.5" cy="152.5" r="2.5" fill="#A9F868"/>
<circle cx="392.5" cy="152.5" r="2.5" fill="#A9F868"/>
<circle cx="422.5" cy="152.5" r="2.5" fill="#A9F868"/>
<circle cx="452.5" cy="152.5" r="2.5" fill="#A9F868"/>
<circle cx="482.5" cy="152.5" r="2.5" fill="#A9F868"/>
<circle cx="512.5" cy="152.5" r="2.5" fill="#A9F868"/>
<circle cx="542.5" cy="152.5" r="2.5" fill="#A9F868"/>
<circle cx="572.5" cy="152.5" r="2.5" fill="#A9F868"/>
<circle cx="2.5" cy="182.5" r="2.5" fill="#A9F868"/>
<circle cx="32.5" cy="182.5" r="2.5" fill="#A9F868"/>
<circle cx="62.5" cy="182.5" r="2.5" fill="#A9F868"/>
<circle cx="92.5" cy="182.5" r="2.5" fill="#A9F868"/>
<circle cx="122.5" cy="182.5" r="2.5" fill="#A9F868"/>
<circle cx="152.5" cy="182.5" r="2.5" fill="#A9F868"/>
<circle cx="182.5" cy="182.5" r="2.5" fill="#A9F868"/>
<circle cx="212.5" cy="182.5" r="2.5" fill="#A9F868"/>
<circle cx="242.5" cy="182.5" r="2.5" fill="#A9F868"/>
<circle cx="272.5" cy="182.5" r="2.5" fill="#A9F868"/>
<circle cx="302.5" cy="182.5" r="2.5" fill="#A9F868"/>
<circle cx="332.5" cy="182.5" r="2.5" fill="#A9F868"/>
<circle cx="362.5" cy="182.5" r="2.5" fill="#A9F868"/>
<circle cx="392.5" cy="182.5" r="2.5" fill="#A9F868"/>
<circle cx="422.5" cy="182.5" r="2.5" fill="#A9F868"/>
<circle cx="452.5" cy="182.5" r="2.5" fill="#A9F868"/>
<circle cx="482.5" cy="182.5" r="2.5" fill="#A9F868"/>
<circle cx="512.5" cy="182.5" r="2.5" fill="#A9F868"/>
<circle cx="542.5" cy="182.5" r="2.5" fill="#A9F868"/>
<circle cx="572.5" cy="182.5" r="2.5" fill="#A9F868"/>
<circle cx="2.5" cy="212.5" r="2.5" fill="#A9F868"/>
<circle cx="32.5" cy="212.5" r="2.5" fill="#A9F868"/>
<circle cx="62.5" cy="212.5" r="2.5" fill="#A9F868"/>
<circle cx="92.5" cy="212.5" r="2.5" fill="#A9F868"/>
<circle cx="122.5" cy="212.5" r="2.5" fill="#A9F868"/>
<circle cx="152.5" cy="212.5" r="2.5" fill="#A9F868"/>
<circle cx="182.5" cy="212.5" r="2.5" fill="#A9F868"/>
<circle cx="212.5" cy="212.5" r="2.5" fill="#A9F868"/>
<circle cx="242.5" cy="212.5" r="2.5" fill="#A9F868"/>
<circle cx="272.5" cy="212.5" r="2.5" fill="#A9F868"/>
<circle cx="302.5" cy="212.5" r="2.5" fill="#A9F868"/>
<circle cx="332.5" cy="212.5" r="2.5" fill="#A9F868"/>
<circle cx="362.5" cy="212.5" r="2.5" fill="#A9F868"/>
<circle cx="392.5" cy="212.5" r="2.5" fill="#A9F868"/>
<circle cx="422.5" cy="212.5" r="2.5" fill="#A9F868"/>
<circle cx="452.5" cy="212.5" r="2.5" fill="#A9F868"/>
<circle cx="482.5" cy="212.5" r="2.5" fill="#A9F868"/>
<circle cx="512.5" cy="212.5" r="2.5" fill="#A9F868"/>
<circle cx="542.5" cy="212.5" r="2.5" fill="#A9F868"/>
<circle cx="572.5" cy="212.5" r="2.5" fill="#A9F868"/>
<circle cx="2.5" cy="242.5" r="2.5" fill="#A9F868"/>
<circle cx="32.5" cy="242.5" r="2.5" fill="#A9F868"/>
<circle cx="62.5" cy="242.5" r="2.5" fill="#A9F868"/>
<circle cx="92.5" cy="242.5" r="2.5" fill="#A9F868"/>
<circle cx="122.5" cy="242.5" r="2.5" fill="#A9F868"/>
<circle cx="152.5" cy="242.5" r="2.5" fill="#A9F868"/>
<circle cx="182.5" cy="242.5" r="2.5" fill="#A9F868"/>
<circle cx="212.5" cy="242.5" r="2.5" fill="#A9F868"/>
<circle cx="242.5" cy="242.5" r="2.5" fill="#A9F868"/>
<circle cx="272.5" cy="242.5" r="2.5" fill="#A9F868"/>
<circle cx="302.5" cy="242.5" r="2.5" fill="#A9F868"/>
<circle cx="332.5" cy="242.5" r="2.5" fill="#A9F868"/>
<circle cx="362.5" cy="242.5" r="2.5" fill="#A9F868"/>
<circle cx="392.5" cy="242.5" r="2.5" fill="#A9F868"/>
<circle cx="422.5" cy="242.5" r="2.5" fill="#A9F868"/>
<circle cx="452.5" cy="242.5" r="2.5" fill="#A9F868"/>
<circle cx="482.5" cy="242.5" r="2.5" fill="#A9F868"/>
<circle cx="512.5" cy="242.5" r="2.5" fill="#A9F868"/>
<circle cx="542.5" cy="242.5" r="2.5" fill="#A9F868"/>
<circle cx="572.5" cy="242.5" r="2.5" fill="#A9F868"/>
<circle cx="2.5" cy="272.5" r="2.5" fill="#A9F868"/>
<circle cx="32.5" cy="272.5" r="2.5" fill="#A9F868"/>
<circle cx="62.5" cy="272.5" r="2.5" fill="#A9F868"/>
<circle cx="92.5" cy="272.5" r="2.5" fill="#A9F868"/>
<circle cx="122.5" cy="272.5" r="2.5" fill="#A9F868"/>
<circle cx="152.5" cy="272.5" r="2.5" fill="#A9F868"/>
<circle cx="182.5" cy="272.5" r="2.5" fill="#A9F868"/>
<circle cx="212.5" cy="272.5" r="2.5" fill="#A9F868"/>
<circle cx="242.5" cy="272.5" r="2.5" fill="#A9F868"/>
<circle cx="272.5" cy="272.5" r="2.5" fill="#A9F868"/>
<circle cx="302.5" cy="272.5" r="2.5" fill="#A9F868"/>
<circle cx="332.5" cy="272.5" r="2.5" fill="#A9F868"/>
<circle cx="362.5" cy="272.5" r="2.5" fill="#A9F868"/>
<circle cx="392.5" cy="272.5" r="2.5" fill="#A9F868"/>
<circle cx="422.5" cy="272.5" r="2.5" fill="#A9F868"/>
<circle cx="452.5" cy="272.5" r="2.5" fill="#A9F868"/>
<circle cx="482.5" cy="272.5" r="2.5" fill="#A9F868"/>
<circle cx="512.5" cy="272.5" r="2.5" fill="#A9F868"/>
<circle cx="542.5" cy="272.5" r="2.5" fill="#A9F868"/>
<circle cx="572.5" cy="272.5" r="2.5" fill="#A9F868"/>
<circle cx="2.5" cy="302.5" r="2.5" fill="#A9F868"/>
<circle cx="32.5" cy="302.5" r="2.5" fill="#A9F868"/>
<circle cx="62.5" cy="302.5" r="2.5" fill="#A9F868"/>
<circle cx="92.5" cy="302.5" r="2.5" fill="#A9F868"/>
<circle cx="122.5" cy="302.5" r="2.5" fill="#A9F868"/>
<circle cx="152.5" cy="302.5" r="2.5" fill="#A9F868"/>
<circle cx="182.5" cy="302.5" r="2.5" fill="#A9F868"/>
<circle cx="212.5" cy="302.5" r="2.5" fill="#A9F868"/>
<circle cx="242.5" cy="302.5" r="2.5" fill="#A9F868"/>
<circle cx="272.5" cy="302.5" r="2.5" fill="#A9F868"/>
<circle cx="302.5" cy="302.5" r="2.5" fill="#A9F868"/>
<circle cx="332.5" cy="302.5" r="2.5" fill="#A9F868"/>
<circle cx="362.5" cy="302.5" r="2.5" fill="#A9F868"/>
<circle cx="392.5" cy="302.5" r="2.5" fill="#A9F868"/>
<circle cx="422.5" cy="302.5" r="2.5" fill="#A9F868"/>
<circle cx="452.5" cy="302.5" r="2.5" fill="#A9F868"/>
<circle cx="482.5" cy="302.5" r="2.5" fill="#A9F868"/>
<circle cx="512.5" cy="302.5" r="2.5" fill="#A9F868"/>
<circle cx="542.5" cy="302.5" r="2.5" fill="#A9F868"/>
<circle cx="572.5" cy="302.5" r="2.5" fill="#A9F868"/>
<circle cx="2.5" cy="332.5" r="2.5" fill="#A9F868"/>
<circle cx="32.5" cy="332.5" r="2.5" fill="#A9F868"/>
<circle cx="62.5" cy="332.5" r="2.5" fill="#A9F868"/>
<circle cx="92.5" cy="332.5" r="2.5" fill="#A9F868"/>
<circle cx="122.5" cy="332.5" r="2.5" fill="#A9F868"/>
<circle cx="152.5" cy="332.5" r="2.5" fill="#A9F868"/>
<circle cx="182.5" cy="332.5" r="2.5" fill="#A9F868"/>
<circle cx="212.5" cy="332.5" r="2.5" fill="#A9F868"/>
<circle cx="242.5" cy="332.5" r="2.5" fill="#A9F868"/>
<circle cx="272.5" cy="332.5" r="2.5" fill="#A9F868"/>
<circle cx="302.5" cy="332.5" r="2.5" fill="#A9F868"/>
<circle cx="332.5" cy="332.5" r="2.5" fill="#A9F868"/>
<circle cx="362.5" cy="332.5" r="2.5" fill="#A9F868"/>
<circle cx="392.5" cy="332.5" r="2.5" fill="#A9F868"/>
<circle cx="422.5" cy="332.5" r="2.5" fill="#A9F868"/>
<circle cx="452.5" cy="332.5" r="2.5" fill="#A9F868"/>
<circle cx="482.5" cy="332.5" r="2.5" fill="#A9F868"/>
<circle cx="512.5" cy="332.5" r="2.5" fill="#A9F868"/>
<circle cx="542.5" cy="332.5" r="2.5" fill="#A9F868"/>
<circle cx="572.5" cy="332.5" r="2.5" fill="#A9F868"/>
<circle cx="2.5" cy="362.5" r="2.5" fill="#A9F868"/>
<circle cx="32.5" cy="362.5" r="2.5" fill="#A9F868"/>
<circle cx="62.5" cy="362.5" r="2.5" fill="#A9F868"/>
<circle cx="92.5" cy="362.5" r="2.5" fill="#A9F868"/>
<circle cx="122.5" cy="362.5" r="2.5" fill="#A9F868"/>
<circle cx="152.5" cy="362.5" r="2.5" fill="#A9F868"/>
<circle cx="182.5" cy="362.5" r="2.5" fill="#A9F868"/>
<circle cx="212.5" cy="362.5" r="2.5" fill="#A9F868"/>
<circle cx="242.5" cy="362.5" r="2.5" fill="#A9F868"/>
<circle cx="272.5" cy="362.5" r="2.5" fill="#A9F868"/>
<circle cx="302.5" cy="362.5" r="2.5" fill="#A9F868"/>
<circle cx="332.5" cy="362.5" r="2.5" fill="#A9F868"/>
<circle cx="362.5" cy="362.5" r="2.5" fill="#A9F868"/>
<circle cx="392.5" cy="362.5" r="2.5" fill="#A9F868"/>
<circle cx="422.5" cy="362.5" r="2.5" fill="#A9F868"/>
<circle cx="452.5" cy="362.5" r="2.5" fill="#A9F868"/>
<circle cx="482.5" cy="362.5" r="2.5" fill="#A9F868"/>
<circle cx="512.5" cy="362.5" r="2.5" fill="#A9F868"/>
<circle cx="542.5" cy="362.5" r="2.5" fill="#A9F868"/>
<circle cx="572.5" cy="362.5" r="2.5" fill="#A9F868"/>
<circle cx="2.5" cy="392.5" r="2.5" fill="#A9F868"/>
<circle cx="32.5" cy="392.5" r="2.5" fill="#A9F868"/>
<circle cx="62.5" cy="392.5" r="2.5" fill="#A9F868"/>
<circle cx="92.5" cy="392.5" r="2.5" fill="#A9F868"/>
<circle cx="122.5" cy="392.5" r="2.5" fill="#A9F868"/>
<circle cx="152.5" cy="392.5" r="2.5" fill="#A9F868"/>
<circle cx="182.5" cy="392.5" r="2.5" fill="#A9F868"/>
<circle cx="212.5" cy="392.5" r="2.5" fill="#A9F868"/>
<circle cx="242.5" cy="392.5" r="2.5" fill="#A9F868"/>
<circle cx="272.5" cy="392.5" r="2.5" fill="#A9F868"/>
<circle cx="302.5" cy="392.5" r="2.5" fill="#A9F868"/>
<circle cx="332.5" cy="392.5" r="2.5" fill="#A9F868"/>
<circle cx="362.5" cy="392.5" r="2.5" fill="#A9F868"/>
<circle cx="392.5" cy="392.5" r="2.5" fill="#A9F868"/>
<circle cx="422.5" cy="392.5" r="2.5" fill="#A9F868"/>
<circle cx="452.5" cy="392.5" r="2.5" fill="#A9F868"/>
<circle cx="482.5" cy="392.5" r="2.5" fill="#A9F868"/>
<circle cx="512.5" cy="392.5" r="2.5" fill="#A9F868"/>
<circle cx="542.5" cy="392.5" r="2.5" fill="#A9F868"/>
<circle cx="572.5" cy="392.5" r="2.5" fill="#A9F868"/>
<circle cx="2.5" cy="422.5" r="2.5" fill="#A9F868"/>
<circle cx="32.5" cy="422.5" r="2.5" fill="#A9F868"/>
<circle cx="62.5" cy="422.5" r="2.5" fill="#A9F868"/>
<circle cx="92.5" cy="422.5" r="2.5" fill="#A9F868"/>
<circle cx="122.5" cy="422.5" r="2.5" fill="#A9F868"/>
<circle cx="152.5" cy="422.5" r="2.5" fill="#A9F868"/>
<circle cx="182.5" cy="422.5" r="2.5" fill="#A9F868"/>
<circle cx="212.5" cy="422.5" r="2.5" fill="#A9F868"/>
<circle cx="242.5" cy="422.5" r="2.5" fill="#A9F868"/>
<circle cx="272.5" cy="422.5" r="2.5" fill="#A9F868"/>
<circle cx="302.5" cy="422.5" r="2.5" fill="#A9F868"/>
<circle cx="332.5" cy="422.5" r="2.5" fill="#A9F868"/>
<circle cx="362.5" cy="422.5" r="2.5" fill="#A9F868"/>
<circle cx="392.5" cy="422.5" r="2.5" fill="#A9F868"/>
<circle cx="422.5" cy="422.5" r="2.5" fill="#A9F868"/>
<circle cx="452.5" cy="422.5" r="2.5" fill="#A9F868"/>
<circle cx="482.5" cy="422.5" r="2.5" fill="#A9F868"/>
<circle cx="512.5" cy="422.5" r="2.5" fill="#A9F868"/>
<circle cx="542.5" cy="422.5" r="2.5" fill="#A9F868"/>
<circle cx="572.5" cy="422.5" r="2.5" fill="#A9F868"/>
<circle cx="2.5" cy="452.5" r="2.5" fill="#A9F868"/>
<circle cx="32.5" cy="452.5" r="2.5" fill="#A9F868"/>
<circle cx="62.5" cy="452.5" r="2.5" fill="#A9F868"/>
<circle cx="92.5" cy="452.5" r="2.5" fill="#A9F868"/>
<circle cx="122.5" cy="452.5" r="2.5" fill="#A9F868"/>
<circle cx="152.5" cy="452.5" r="2.5" fill="#A9F868"/>
<circle cx="182.5" cy="452.5" r="2.5" fill="#A9F868"/>
<circle cx="212.5" cy="452.5" r="2.5" fill="#A9F868"/>
<circle cx="242.5" cy="452.5" r="2.5" fill="#A9F868"/>
<circle cx="272.5" cy="452.5" r="2.5" fill="#A9F868"/>
<circle cx="302.5" cy="452.5" r="2.5" fill="#A9F868"/>
<circle cx="332.5" cy="452.5" r="2.5" fill="#A9F868"/>
<circle cx="362.5" cy="452.5" r="2.5" fill="#A9F868"/>
<circle cx="392.5" cy="452.5" r="2.5" fill="#A9F868"/>
<circle cx="422.5" cy="452.5" r="2.5" fill="#A9F868"/>
<circle cx="452.5" cy="452.5" r="2.5" fill="#A9F868"/>
<circle cx="482.5" cy="452.5" r="2.5" fill="#A9F868"/>
<circle cx="512.5" cy="452.5" r="2.5" fill="#A9F868"/>
<circle cx="542.5" cy="452.5" r="2.5" fill="#A9F868"/>
<circle cx="572.5" cy="452.5" r="2.5" fill="#A9F868"/>
<circle cx="2.5" cy="482.5" r="2.5" fill="#A9F868"/>
<circle cx="32.5" cy="482.5" r="2.5" fill="#A9F868"/>
<circle cx="62.5" cy="482.5" r="2.5" fill="#A9F868"/>
<circle cx="92.5" cy="482.5" r="2.5" fill="#A9F868"/>
<circle cx="122.5" cy="482.5" r="2.5" fill="#A9F868"/>
<circle cx="152.5" cy="482.5" r="2.5" fill="#A9F868"/>
<circle cx="182.5" cy="482.5" r="2.5" fill="#A9F868"/>
<circle cx="212.5" cy="482.5" r="2.5" fill="#A9F868"/>
<circle cx="242.5" cy="482.5" r="2.5" fill="#A9F868"/>
<circle cx="272.5" cy="482.5" r="2.5" fill="#A9F868"/>
<circle cx="302.5" cy="482.5" r="2.5" fill="#A9F868"/>
<circle cx="332.5" cy="482.5" r="2.5" fill="#A9F868"/>
<circle cx="362.5" cy="482.5" r="2.5" fill="#A9F868"/>
<circle cx="392.5" cy="482.5" r="2.5" fill="#A9F868"/>
<circle cx="422.5" cy="482.5" r="2.5" fill="#A9F868"/>
<circle cx="452.5" cy="482.5" r="2.5" fill="#A9F868"/>
<circle cx="482.5" cy="482.5" r="2.5" fill="#A9F868"/>
<circle cx="512.5" cy="482.5" r="2.5" fill="#A9F868"/>
<circle cx="542.5" cy="482.5" r="2.5" fill="#A9F868"/>
<circle cx="572.5" cy="482.5" r="2.5" fill="#A9F868"/>
</g>
<defs>
<clipPath id="clip0_189_80">
<rect width="575" height="500" fill="white"/>
</clipPath>
</defs>
</svg>
